<svg xmlns="http://www.w3.org/2000/svg" xmlns:xlink="http://www.w3.org/1999/xlink" viewBox="0 0 950 700">
  <defs>
    <linearGradient id="a" x1="346.229" y1="143.501" x2="505.778" y2="143.501" gradientUnits="userSpaceOnUse">
      <stop offset="0" stop-color="#fbc26f"/>
      <stop offset="1" stop-color="#feebcf"/>
    </linearGradient>
    <linearGradient id="b" x1="146.811" y1="344.594" x2="815.012" y2="344.594" gradientUnits="userSpaceOnUse">
      <stop offset="0" stop-color="#eaebeb"/>
      <stop offset="1" stop-color="#f7f7f8"/>
    </linearGradient>
    <filter id="c" name="AI_GaussianBlur_4">
      <feGaussianBlur stdDeviation="4"/>
    </filter>
    <linearGradient id="d" x1="602.71" y1="315.867" x2="872.215" y2="46.362" gradientUnits="userSpaceOnUse">
      <stop offset="0" stop-color="#faae40"/>
      <stop offset="1" stop-color="#f38020"/>
    </linearGradient>
    <linearGradient id="e" x1="603.077" y1="385.672" x2="799.036" y2="385.672" xlink:href="#d"/>
    <linearGradient id="g" x1="85.585" y1="171.542" x2="261.007" y2="171.542" xlink:href="#d"/>
    <linearGradient id="j" x1="320.695" y1="164.998" x2="524.853" y2="164.998" gradientUnits="userSpaceOnUse">
      <stop offset="0" stop-color="#fdd69f"/>
      <stop offset="1" stop-color="#feebcf"/>
    </linearGradient>
    <linearGradient id="k" x1="2022.711" y1="7469.249" x2="2055.892" y2="7469.249" gradientTransform="matrix(-0.236, -0.972, -0.972, 0.236, 8221.769, 357.575)" gradientUnits="userSpaceOnUse">
      <stop offset="0" stop-color="#faad3f"/>
      <stop offset="1" stop-color="#f48120"/>
    </linearGradient>
    <linearGradient id="l" x1="2023.794" y1="7508.406" x2="2056.975" y2="7508.406" xlink:href="#k"/>
    <clipPath id="n">
      <path d="M346.978,162.552c3.46,14.135,17.5,22.513,31.849,19.058l106.709-25.7a26.007,26.007,0,0,0,19.492-31.423h0a26.019,26.019,0,0,0-31.6-19.118l-106.709,25.7c-14.345,3.455-23.2,17.349-19.743,31.484Z" style="fill: url(#a)"/>
    </clipPath>
    <linearGradient id="o" x1="480.355" y1="456.811" x2="530.863" y2="456.811" xlink:href="#d"/>
    <linearGradient id="p" x1="316.454" y1="414.248" x2="514.522" y2="414.248" xlink:href="#j"/>
    <linearGradient id="q" x1="215.321" y1="311.208" x2="265.829" y2="311.208" xlink:href="#d"/>
    <linearGradient id="r" x1="273.43" y1="317.182" x2="285.314" y2="317.182" gradientTransform="matrix(1, 0, 0, 1, 0, 0)" xlink:href="#k"/>
    <linearGradient id="s" x1="312.297" y1="400.563" x2="319.596" y2="400.563" gradientTransform="translate(32.725 -23.77) rotate(4.544)" xlink:href="#k"/>
    <linearGradient id="t" x1="292.427" y1="352.906" x2="313.315" y2="352.906" gradientTransform="translate(93.695 -62.448) rotate(13.907)" xlink:href="#k"/>
    <linearGradient id="u" x1="329.183" y1="586.107" x2="457.568" y2="586.107" gradientTransform="matrix(1, 0, 0, 1, 0, 0)" xlink:href="#k"/>
    <linearGradient id="v" x1="295.105" y1="617.293" x2="463.244" y2="617.293" gradientTransform="matrix(1, 0, 0, 1, 0, 0)" xlink:href="#k"/>
    <linearGradient id="w" x1="248.176" y1="658.784" x2="466.304" y2="658.784" gradientTransform="matrix(1, 0, 0, 1, 0, 0)" xlink:href="#k"/>
    <linearGradient id="x" x1="467.264" y1="223.302" x2="467.264" y2="176.274" xlink:href="#d"/>
  </defs>
  <title>--</title>
  <circle cx="480.912" cy="344.594" r="334.1" style="fill: url(#b)"/>
  <g style="opacity: 0.39;filter: url(#c)">
    <path d="M894.549,87.227H608.324A45.055,45.055,0,0,0,563.4,132.149v69.982A45.1,45.1,0,0,0,597,245.6h-.007l2.2,66.754,109.993-65.295H894.549a45.055,45.055,0,0,0,44.923-44.923V132.149A45.055,45.055,0,0,0,894.549,87.227Z" style="fill: #7f78b7"/>
  </g>
  <path d="M894.549,87.227H608.324A45.055,45.055,0,0,0,563.4,132.149v69.982A45.1,45.1,0,0,0,597,245.6h-.007l2.2,66.754,109.993-65.295H894.549a45.055,45.055,0,0,0,44.923-44.923V132.149A45.055,45.055,0,0,0,894.549,87.227Z" style="fill: url(#d)"/>
  <path d="M630.5,341.836h141.11a27.505,27.505,0,0,1,27.424,27.425h0a27.505,27.505,0,0,1-27.424,27.425H677.02l-55.293,32.823-1.145-34.7a27.521,27.521,0,0,1-17.505-25.549h0A27.505,27.505,0,0,1,630.5,341.836Z" style="fill: url(#e)"/>
  <g style="opacity: 0.54;filter: url(#c)">
    <path d="M106.114,118.7H240.478a21.15,21.15,0,0,1,21.088,21.088v32.852a21.171,21.171,0,0,1-15.771,20.4h0l-1.034,31.336L193.13,193.73H106.114a21.15,21.15,0,0,1-21.088-21.088V139.79A21.15,21.15,0,0,1,106.114,118.7Z" style="fill: #7f78b7"/>
  </g>
  <path d="M106.54,119.036H240.052a21.016,21.016,0,0,1,20.955,20.955v32.644a21.037,21.037,0,0,1-15.671,20.274h0l-1.027,31.138L193,193.59H106.54a21.016,21.016,0,0,1-20.955-20.955V139.991A21.016,21.016,0,0,1,106.54,119.036Z" style="fill: url(#g)"/>
  <g style="opacity: 0.3;filter: url(#c)">
    <path d="M339.6,213.058c11.922,36.178,46.3,57.75,76.393,47.938l74.518-24.3c30.094-9.813,44.961-47.442,33.038-83.62l-11.975-36.339a82.886,82.886,0,0,0-3.643-9.156l-.047-.194-.036.009c-.788-1.675-3.722-7-3.722-7-15.5-25.991-43.722-39.821-68.944-31.6L360.66,93.1c-30.094,9.813-44.961,47.442-33.038,83.62Z" style="fill: #7f78b7"/>
  </g>
  <g style="opacity: 0.3;filter: url(#c)">
    <path d="M512.274,431.617q.609-3.085,1.149-6.2c4.549-.036,9.032-10.694,10.091-24.148s-1.7-24.7-6.2-25.445q-.063-8.658-.74-16.436h.26l-.99-9.956h-.418c-9.322-63.879-51.68-79.4-97.131-79.4-45.484,0-87.87,15.157-97.151,79.4h-.4l-.99,9.956h.252q-.661,7.74-.732,16.342c-4.333,1.135-6.967,12.2-5.928,25.391,1.022,12.987,5.235,23.368,9.618,24.107,7,39.631,22.3,76.264,42.585,100.947,15.577,19.832,33.831,32.092,52.744,32.092,21.3,0,41.77-15.633,58.515-40.108a198.705,198.705,0,0,0,20.97-38.42,25.037,25.037,0,0,0,10.636,2.362,25.4,25.4,0,0,0,3.855-50.483Z" style="fill: #7f78b7"/>
  </g>
  <path d="M413.18,261.1,487.7,236.8c30.094-9.813,44.961-47.442,33.038-83.62l-11.975-36.339c-11.922-36.178-46.3-57.75-76.393-47.938L357.85,93.2c-30.094,9.813-44.961,47.442-33.038,83.62l11.975,36.339C348.71,249.337,383.086,270.909,413.18,261.1Z" style="fill: url(#j)"/>
  <path d="M346.978,162.552c3.46,14.135,17.5,22.513,31.849,19.058l106.709-25.7a26.007,26.007,0,0,0,19.492-31.423h0a26.019,26.019,0,0,0-31.6-19.118l-106.709,25.7c-14.345,3.455-23.2,17.349-19.743,31.484Z" style="fill: #fff"/>
  <path d="M478.291,122.253c-6.464,1.557-10.977,5.09-10.261,8.015l5.327,21.76c.7,2.874,6.36,4.012,12.824,2.455h0c6.464-1.557,10.977-5.09,10.274-7.963l-5.327-21.76c-.716-2.925-6.373-4.063-12.837-2.506Z" style="fill: url(#k)"/>
  <path d="M439.984,130.441c-6.464,1.557-10.977,5.09-10.261,8.015l5.327,21.76c.7,2.874,6.36,4.012,12.824,2.455h0c6.464-1.557,10.977-5.09,10.274-7.963l-5.327-21.76c-.716-2.925-6.373-4.063-12.837-2.506Z" style="fill: url(#l)"/>
  <g style="opacity: 0.16">
    <path d="M346.978,162.552c3.46,14.135,17.5,22.513,31.849,19.058l106.709-25.7a26.007,26.007,0,0,0,19.492-31.423h0a26.019,26.019,0,0,0-31.6-19.118l-106.709,25.7c-14.345,3.455-23.2,17.349-19.743,31.484Z" style="fill: url(#a)"/>
    <g style="clip-path: url(#n)">
      <polygon points="337.257 140.01 503.245 100.032 503.798 102.293 337.81 142.27 337.257 140.01" style="fill: #fff"/>
      <polygon points="339.082 147.466 505.07 107.488 505.624 109.749 339.636 149.726 339.082 147.466" style="fill: #fff"/>
      <polygon points="340.908 154.922 506.896 114.944 507.449 117.205 341.461 157.183 340.908 154.922" style="fill: #fff"/>
      <polygon points="342.733 162.378 508.721 122.4 509.274 124.661 343.286 164.639 342.733 162.378" style="fill: #fff"/>
      <polygon points="344.558 169.834 510.546 129.857 511.099 132.117 345.111 172.095 344.558 169.834" style="fill: #fff"/>
      <polygon points="346.383 177.29 512.371 137.313 512.925 139.573 346.937 179.551 346.383 177.29" style="fill: #fff"/>
      <polygon points="348.208 184.747 514.197 144.769 514.75 147.029 348.762 187.007 348.208 184.747" style="fill: #fff"/>
    </g>
  </g>
  <polygon points="254.308 314.794 278.976 319.143 292.297 322.169 314.018 401.23 317.875 400.17 295.52 318.799 279.767 315.221 255.002 310.855 254.308 314.794 254.308 314.794" style="fill: #fdd69f"/>
  <g>
    <path d="M520.7,401.368c-1.079,13.7-5.711,24.515-10.345,24.147s-7.517-11.778-6.438-25.482,5.711-24.515,10.345-24.147S521.783,387.663,520.7,401.368Z" style="fill: #fdd69f"/>
    <ellipse cx="505.609" cy="456.811" rx="25.254" ry="25.389" style="fill: url(#o)"/>
    <ellipse cx="505.609" cy="420.968" rx="5.942" ry="5.974" style="fill: #fff"/>
    <path d="M514.522,377.658c0,87.616-47.041,180.708-99.034,180.708s-99.034-92.594-99.034-180.708,47.536-107.529,99.034-107.529S514.522,290.042,514.522,377.658Z" style="fill: url(#p)"/>
    <path d="M356.068,349.531H317.939l-.99,9.956h35.157" style="fill: #fff"/>
    <path d="M474.909,349.531h38.128l.99,9.956H478.87" style="fill: #fff"/>
    <path d="M316.949,378.156l-.5-1c0,.5-.5.5-.5,1,0,58.245,19.807,117.485,49.517,151.337l-26.3-134.411,7.98-16.926H316.949Z" style="fill: #fff"/>
    <path d="M513.532,380.443l.5-1c0,.5.5.5.5,1,0,58.245-19.807,115-49.517,149.346l28.589-132.42-10.268-16.926Z" style="fill: #fff"/>
    <ellipse cx="240.575" cy="311.208" rx="25.254" ry="25.389" style="fill: url(#q)"/>
    <ellipse cx="279.372" cy="317.182" rx="5.942" ry="5.974" style="fill: url(#r)"/>
    <path d="M310.541,401.221c-1.079-13.7,1.8-25.113,6.438-25.482s9.266,10.442,10.345,24.147-1.8,25.113-6.438,25.482S311.62,414.925,310.541,401.221Z" style="fill: #fdd69f"/>
    <ellipse cx="315.947" cy="400.563" rx="3.466" ry="14.934" transform="translate(-30.739 26.288) rotate(-4.544)" style="fill: url(#s)"/>
    <ellipse cx="302.871" cy="352.906" rx="7.021" ry="32.928" transform="translate(-75.94 83.136) rotate(-13.907)" style="fill: url(#t)"/>
  </g>
  <g>
    <path d="M395.864,577.945c-35.425-10.915-65.257-16.109-66.631-11.6s26.23,17.01,61.655,27.925,65.257,16.109,66.631,11.6S431.289,588.86,395.864,577.945Z" style="fill: url(#u)"/>
    <path d="M384.313,600.438c-46.342-14.278-86.21-18.307-89.047-9s32.429,28.43,78.771,42.708,86.21,18.307,89.047,9S430.654,614.716,384.313,600.438Z" style="opacity: 0.45;fill: url(#v)"/>
    <path d="M363.906,636.918c-60.12-18.523-111.841-23.749-115.522-11.673s42.071,36.882,102.191,55.406S462.415,704.4,466.1,692.323,424.025,655.441,363.906,636.918Z" style="opacity: 0.22;fill: url(#w)"/>
  </g>
  <path d="M431.59,176.274h71.348a6.19,6.19,0,0,1,6.19,6.19v0A40.838,40.838,0,0,1,468.29,223.3H456.785A31.384,31.384,0,0,1,425.4,191.918v-9.454A6.19,6.19,0,0,1,431.59,176.274Z" style="fill: url(#x)"/>
</svg>
