<svg xmlns="http://www.w3.org/2000/svg" xmlns:xlink="http://www.w3.org/1999/xlink" viewBox="0 0 950 700">
  <defs>
    <linearGradient id="a" x1="146.811" y1="344.594" x2="815.012" y2="344.594" gradientUnits="userSpaceOnUse">
      <stop offset="0" stop-color="#eaebeb"/>
      <stop offset="1" stop-color="#f7f7f8"/>
    </linearGradient>
    <filter id="b" name="AI_GaussianBlur_4">
      <feGaussianBlur stdDeviation="4"/>
    </filter>
    <linearGradient id="c" x1="132.4" y1="370.744" x2="829.424" y2="370.744" gradientUnits="userSpaceOnUse">
      <stop offset="0" stop-color="#fdd69f"/>
      <stop offset="1" stop-color="#feebcf"/>
    </linearGradient>
    <linearGradient id="d" x1="673.425" y1="311.995" x2="766.066" y2="311.995" gradientUnits="userSpaceOnUse">
      <stop offset="0" stop-color="#f38222"/>
      <stop offset="1" stop-color="#faae40"/>
    </linearGradient>
    <linearGradient id="e" x1="673.715" y1="207.864" x2="759.033" y2="207.864" xlink:href="#d"/>
    <linearGradient id="f" x1="701.057" y1="231.028" x2="751.436" y2="231.028" xlink:href="#d"/>
    <linearGradient id="g" x1="673.425" y1="231.499" x2="695.096" y2="231.499" xlink:href="#d"/>
    <linearGradient id="h" x1="666.932" y1="513.73" x2="744.814" y2="513.73" xlink:href="#d"/>
    <linearGradient id="i" x1="666.932" y1="532.283" x2="717.312" y2="532.283" xlink:href="#d"/>
    <linearGradient id="j" x1="198.856" y1="578.336" x2="616.039" y2="161.153" gradientUnits="userSpaceOnUse">
      <stop offset="0" stop-color="#f38020"/>
      <stop offset="1" stop-color="#faae40"/>
    </linearGradient>
  </defs>
  <title>--</title>
  <circle cx="480.912" cy="344.594" r="334.1" style="fill: url(#a)"/>
  <g style="opacity: 0.5;filter: url(#b)">
    <path d="M822.787,86.89H139.03a4.538,4.538,0,0,0-4.524,4.524V608.946H827.311V91.414A4.538,4.538,0,0,0,822.787,86.89Z" style="fill: #7f78b7"/>
  </g>
  <rect x="132.4" y="85.377" width="697.024" height="523.966" rx="4.552" ry="4.552" style="fill: #fff"/>
  <rect x="132.4" y="130.875" width="697.024" height="479.737" style="fill: url(#c)"/>
  <rect x="658.242" y="184.714" width="130.004" height="160.13" rx="2" ry="2" style="fill: #fff"/>
  <rect x="658.242" y="361.158" width="130.004" height="190.708" rx="2" ry="2" style="fill: #fff"/>
  <g>
    <ellipse cx="167.019" cy="111.52" rx="9.688" ry="9.982" style="fill: #fdd69f"/>
    <ellipse cx="201.707" cy="111.52" rx="9.688" ry="9.982" style="fill: #fdd69f"/>
    <ellipse cx="236.396" cy="111.52" rx="9.688" ry="9.982" style="fill: #fdd69f"/>
  </g>
  <rect x="673.425" y="292.475" width="92.642" height="39.039" rx="5.528" ry="5.528" style="fill: url(#d)"/>
  <rect x="673.715" y="203.669" width="85.317" height="8.388" rx="4.194" ry="4.194" style="fill: url(#e)"/>
  <rect x="701.057" y="226.834" width="50.38" height="8.388" rx="4.194" ry="4.194" style="fill: url(#f)"/>
  <rect x="673.425" y="227.305" width="21.671" height="8.388" rx="4.194" ry="4.194" style="fill: url(#g)"/>
  <rect x="658.515" y="361.158" width="129.73" height="190.708" rx="5.018" ry="5.018" style="fill: #fff"/>
  <rect x="666.932" y="509.536" width="77.882" height="8.388" rx="3.669" ry="3.669" style="fill: url(#h)"/>
  <rect x="666.932" y="528.089" width="50.38" height="8.388" rx="3.669" ry="3.669" style="fill: url(#i)"/>
  <rect x="173.076" y="185.758" width="468.744" height="367.973" rx="2" ry="2" style="fill: url(#j)"/>
  <rect x="252.499" y="213.797" width="309.896" height="309.896" rx="11.78" ry="11.78" style="fill: #fff"/>
  <g>
    <polygon points="403.848 280.12 411.476 280.12 411.476 272.492 396.219 272.492 396.219 287.749 403.848 287.749 403.848 280.12 403.848 280.12" style="fill: #e06d10"/>
    <polygon points="419.104 287.749 426.733 287.749 426.733 280.12 434.361 280.12 434.361 272.492 419.104 272.492 419.104 280.12 411.476 280.12 411.476 287.749 419.104 287.749 419.104 287.749" style="fill: #e06d10"/>
    <polygon points="426.733 287.749 426.733 318.262 434.361 318.262 434.361 325.89 441.989 325.89 441.989 310.633 434.361 310.633 434.361 303.005 441.989 303.005 441.989 280.12 434.361 280.12 434.361 287.749 426.733 287.749 426.733 287.749" style="fill: #e06d10"/>
    <polygon points="419.104 303.005 411.476 303.005 411.476 310.633 419.104 310.633 419.104 303.005 419.104 303.005" style="fill: #e06d10"/>
    <polygon points="396.219 318.262 403.848 318.262 403.848 295.377 396.219 295.377 396.219 287.749 380.962 287.749 380.962 280.12 373.334 280.12 373.334 295.377 388.591 295.377 388.591 333.518 396.219 333.518 396.219 318.262 396.219 318.262" style="fill: #e06d10"/>
    <polygon points="403.848 318.262 403.848 325.89 411.476 325.89 411.476 318.262 403.848 318.262 403.848 318.262" style="fill: #e06d10"/>
    <polygon points="419.104 325.89 426.733 325.89 426.733 318.262 419.104 318.262 419.104 325.89 419.104 325.89" style="fill: #e06d10"/>
    <polygon points="380.962 325.89 380.962 303.005 373.334 303.005 373.334 333.518 380.962 333.518 380.962 325.89 380.962 325.89" style="fill: #e06d10"/>
    <polygon points="411.476 333.518 419.104 333.518 419.104 325.89 411.476 325.89 411.476 333.518 411.476 333.518" style="fill: #e06d10"/>
    <polygon points="327.564 333.518 312.307 333.518 312.307 348.775 327.564 348.775 327.564 333.518 327.564 333.518" style="fill: #e06d10"/>
    <polygon points="335.192 341.147 342.821 341.147 342.821 333.518 335.192 333.518 335.192 341.147 335.192 341.147" style="fill: #e06d10"/>
    <polygon points="365.706 333.518 358.077 333.518 358.077 341.147 373.334 341.147 373.334 333.518 365.706 333.518 365.706 333.518" style="fill: #e06d10"/>
    <polygon points="426.733 341.147 426.733 333.518 419.104 333.518 419.104 341.147 426.733 341.147 426.733 341.147" style="fill: #e06d10"/>
    <polygon points="434.361 341.147 441.989 341.147 441.989 333.518 434.361 333.518 434.361 341.147 434.361 341.147" style="fill: #e06d10"/>
    <polygon points="350.449 348.775 350.449 356.404 365.706 356.404 365.706 348.775 358.077 348.775 358.077 341.147 350.449 341.147 350.449 348.775 350.449 348.775" style="fill: #e06d10"/>
    <polygon points="388.591 348.775 403.848 348.775 403.848 356.404 396.219 356.404 396.219 364.032 403.848 364.032 403.848 371.66 419.104 371.66 419.104 364.032 411.476 364.032 411.476 348.775 419.104 348.775 419.104 341.147 403.848 341.147 403.848 333.518 396.219 333.518 396.219 341.147 373.334 341.147 373.334 356.404 380.962 356.404 380.962 348.775 388.591 348.775 388.591 348.775" style="fill: #e06d10"/>
    <polygon points="495.388 341.147 495.388 333.518 480.131 333.518 480.131 341.147 487.759 341.147 487.759 348.775 495.388 348.775 495.388 341.147 495.388 341.147" style="fill: #e06d10"/>
    <polygon points="480.131 356.404 487.759 356.404 487.759 348.775 472.503 348.775 472.503 356.404 480.131 356.404 480.131 356.404" style="fill: #e06d10"/>
    <polygon points="312.307 356.404 312.307 364.032 319.936 364.032 319.936 356.404 312.307 356.404 312.307 356.404" style="fill: #e06d10"/>
    <polygon points="388.591 356.404 380.962 356.404 380.962 364.032 388.591 364.032 388.591 356.404 388.591 356.404" style="fill: #e06d10"/>
    <polygon points="426.733 356.404 419.104 356.404 419.104 364.032 426.733 364.032 426.733 356.404 426.733 356.404" style="fill: #e06d10"/>
    <polygon points="495.388 364.032 480.131 364.032 480.131 379.289 503.016 379.289 503.016 356.404 495.388 356.404 495.388 364.032 495.388 364.032" style="fill: #e06d10"/>
    <polygon points="327.564 371.66 335.192 371.66 335.192 364.032 342.821 364.032 342.821 356.404 335.192 356.404 335.192 348.775 327.564 348.775 327.564 364.032 319.936 364.032 319.936 379.289 327.564 379.289 327.564 371.66 327.564 371.66" style="fill: #e06d10"/>
    <path d="M472.5,371.66h-7.628v-7.628H472.5V356.4h-7.628v-7.628h-7.628v-7.628h7.628v7.628H472.5V333.518H449.618v15.257H434.361v15.257h7.628v7.628h7.628v15.257h-7.628v-7.628h-7.628V409.8h-7.628v15.257H419.1v7.628h7.628v15.257H411.476v-7.628H419.1v-7.628h-7.628V417.43H419.1V394.545h7.628V379.289h7.628V371.66H419.1v7.628h-7.628v7.628h-7.628v7.628h7.628V409.8h-7.628v15.257h-7.628V417.43h-7.628V409.8h7.628v-7.628h-7.628V379.289h7.628V364.032h-7.628v7.628h-7.628v-7.628H350.449v7.628h22.885v7.628h7.628v15.257h-7.628V417.43h7.628v15.257h7.628v7.628h-7.628v7.628h-7.628V463.2h7.628v-7.628h7.628v-7.628h7.628v7.628h7.628V463.2H419.1v-7.628h15.257V463.2h15.257V440.315h-7.628v7.628h-7.628v-7.628h7.628v-7.628h7.628v7.628h7.628v7.628h7.628v-7.628H472.5V425.059h7.628v7.628h15.257v-7.628h7.628V409.8H487.759v7.628h-7.628V409.8H472.5V394.545h-7.628v-7.628h-7.628v-7.628h7.628v7.628h15.257v-7.628H472.5V371.66ZM464.874,409.8v15.257H441.989V402.174h22.885V409.8Z" style="fill: #e06d10"/>
    <polygon points="312.307 379.289 312.307 386.917 319.936 386.917 319.936 379.289 312.307 379.289 312.307 379.289" style="fill: #e06d10"/>
    <polygon points="373.334 379.289 358.077 379.289 358.077 386.917 365.706 386.917 365.706 394.545 373.334 394.545 373.334 379.289 373.334 379.289" style="fill: #e06d10"/>
    <polygon points="396.219 379.289 396.219 386.917 403.848 386.917 403.848 379.289 396.219 379.289 396.219 379.289" style="fill: #e06d10"/>
    <polygon points="327.564 402.174 342.821 402.174 342.821 394.545 335.192 394.545 335.192 386.917 350.449 386.917 350.449 379.289 342.821 379.289 342.821 371.66 335.192 371.66 335.192 379.289 327.564 379.289 327.564 386.917 319.936 386.917 319.936 394.545 312.307 394.545 312.307 402.174 327.564 402.174 327.564 402.174" style="fill: #e06d10"/>
    <polygon points="358.077 402.174 365.706 402.174 365.706 394.545 358.077 394.545 358.077 402.174 358.077 402.174" style="fill: #e06d10"/>
    <polygon points="495.388 402.174 503.016 402.174 503.016 394.545 495.388 394.545 495.388 402.174 495.388 402.174" style="fill: #e06d10"/>
    <polygon points="449.618 417.43 457.246 417.43 457.246 409.802 449.618 409.802 449.618 417.43 449.618 417.43" style="fill: #e06d10"/>
    <polygon points="373.334 432.687 373.334 440.315 380.962 440.315 380.962 432.687 373.334 432.687 373.334 432.687" style="fill: #e06d10"/>
    <polygon points="472.503 455.572 464.874 455.572 464.874 463.2 480.131 463.2 480.131 447.944 487.759 447.944 487.759 440.315 472.503 440.315 472.503 455.572 472.503 455.572" style="fill: #e06d10"/>
    <polygon points="487.759 463.2 503.016 463.2 503.016 440.315 495.388 440.315 495.388 447.944 487.759 447.944 487.759 463.2 487.759 463.2" style="fill: #e06d10"/>
    <path d="M327.64,325.89h38.142v-53.4h-53.4v53.4Zm-7.628-15.257V280.12h38.142v38.142H320.012v-7.628Z" style="fill: #e06d10"/>
    <polygon points="342.821 310.633 350.449 310.633 350.449 287.749 327.564 287.749 327.564 310.633 342.821 310.633 342.821 310.633" style="fill: #e06d10"/>
    <path d="M495.464,272.492h-45.77v53.4h53.4v-53.4Zm0,15.257v30.513H457.322V280.12h38.142v7.628Z" style="fill: #e06d10"/>
    <polygon points="480.131 287.749 464.874 287.749 464.874 310.633 487.759 310.633 487.759 287.749 480.131 287.749 480.131 287.749" style="fill: #e06d10"/>
    <path d="M350.525,409.8H312.384v53.4h53.4V409.8Zm7.628,15.257v30.513H320.012V417.43h38.142v7.628Z" style="fill: #e06d10"/>
    <polygon points="342.821 425.059 327.564 425.059 327.564 447.944 350.449 447.944 350.449 425.059 342.821 425.059 342.821 425.059" style="fill: #e06d10"/>
  </g>
</svg>
