<svg width="12" height="12" viewBox="0 0 12 12" fill="none" xmlns="http://www.w3.org/2000/svg">
<path d="M10.87 10.88V5.54999C10.87 5.44921 10.91 5.35256 10.9813 5.28129C11.0526 5.21003 11.1492 5.16999 11.25 5.16999C11.2994 5.16998 11.3484 5.17987 11.3939 5.19908C11.4395 5.2183 11.4807 5.24645 11.5152 5.28188C11.5497 5.3173 11.5768 5.35928 11.5948 5.40533C11.6128 5.45138 11.6213 5.50057 11.62 5.54999V11.25C11.6214 11.299 11.6128 11.3477 11.5946 11.3932C11.5765 11.4387 11.5493 11.4801 11.5147 11.5147C11.4801 11.5493 11.4387 11.5765 11.3932 11.5946C11.3477 11.6127 11.299 11.6214 11.25 11.62H0.749995C0.700571 11.6213 0.651381 11.6127 0.60533 11.5948C0.559278 11.5768 0.517301 11.5497 0.481877 11.5152C0.446453 11.4807 0.418302 11.4395 0.399085 11.3939C0.379869 11.3484 0.369977 11.2994 0.369995 11.25V0.749995C0.369977 0.700553 0.379869 0.651609 0.399085 0.606054C0.418302 0.560499 0.446453 0.519257 0.481877 0.484766C0.517301 0.450274 0.559278 0.423232 0.60533 0.405237C0.651381 0.387242 0.700571 0.378659 0.749995 0.379995H6.46C6.55813 0.379995 6.65224 0.418977 6.72163 0.488365C6.79101 0.557754 6.83 0.651865 6.83 0.749995C6.83 0.848125 6.79101 0.942236 6.72163 1.01162C6.65224 1.08101 6.55813 1.11999 6.46 1.11999H1.12V10.88H10.87Z" fill="#2C7CB0"/>
<path d="M10.34 1.11999H9C8.90187 1.11999 8.80776 1.08101 8.73837 1.01162C8.66898 0.942236 8.63 0.848125 8.63 0.749995C8.63 0.651865 8.66898 0.557754 8.73837 0.488366C8.80776 0.418977 8.90187 0.379995 9 0.379995H11.25C11.299 0.378615 11.3477 0.387242 11.3932 0.405348C11.4387 0.423453 11.4801 0.450657 11.5147 0.485294C11.5493 0.51993 11.5765 0.561271 11.5946 0.606786C11.6128 0.6523 11.6214 0.701031 11.62 0.749995V2.99999C11.6213 3.04942 11.6128 3.09861 11.5948 3.14466C11.5768 3.19071 11.5497 3.23269 11.5152 3.26811C11.4807 3.30354 11.4395 3.33169 11.3939 3.35091C11.3484 3.37012 11.2994 3.38001 11.25 3.38C11.1492 3.38 11.0526 3.33996 10.9813 3.2687C10.91 3.19743 10.87 3.10078 10.87 2.99999V1.66L5.5 7C5.47293 7.05121 5.43423 7.09535 5.38699 7.12888C5.33975 7.1624 5.2853 7.18436 5.22802 7.193C5.17074 7.20163 5.11224 7.1967 5.05721 7.17859C5.00219 7.16049 4.95219 7.12972 4.91123 7.08876C4.87027 7.0478 4.8395 6.9978 4.8214 6.94278C4.80329 6.88775 4.79836 6.82925 4.80699 6.77197C4.81563 6.71469 4.83759 6.66024 4.87111 6.61301C4.90464 6.56577 4.94878 6.52706 5 6.5L10.34 1.11999Z" fill="#2C7CB0"/>
</svg>
