<svg xmlns="http://www.w3.org/2000/svg" xmlns:xlink="http://www.w3.org/1999/xlink" viewBox="0 0 950 700">
  <defs>
    <linearGradient id="a" x1="169.594" y1="344.594" x2="837.795" y2="344.594" gradientUnits="userSpaceOnUse">
      <stop offset="0" stop-color="#eaebeb"/>
      <stop offset="1" stop-color="#f7f7f8"/>
    </linearGradient>
    <filter id="b" name="AI_GaussianBlur_4">
      <feGaussianBlur stdDeviation="4"/>
    </filter>
    <linearGradient id="c" x1="459.333" y1="513.735" x2="1032.844" y2="513.735" gradientTransform="matrix(1, 0, -0.24, 0.862, -142.723, -81.85)" gradientUnits="userSpaceOnUse">
      <stop offset="0" stop-color="#f38020"/>
      <stop offset="1" stop-color="#faae40"/>
    </linearGradient>
    <linearGradient id="d" x1="403.557" y1="401.747" x2="702.03" y2="401.747" gradientUnits="userSpaceOnUse">
      <stop offset="0" stop-color="#fbc26f"/>
      <stop offset="1" stop-color="#feebcf"/>
    </linearGradient>
    <linearGradient id="f" x1="596.449" y1="464.004" x2="914.645" y2="464.004" gradientUnits="userSpaceOnUse">
      <stop offset="0" stop-color="#fff"/>
      <stop offset="1" stop-color="#feebcf"/>
    </linearGradient>
    <linearGradient id="g" x1="609.05" y1="498.156" x2="902.044" y2="498.156" gradientTransform="matrix(1, 0, 0, 1, 0, 0)" xlink:href="#c"/>
    <linearGradient id="h" x1="231.1" y1="463.889" x2="549.295" y2="463.889" gradientTransform="matrix(1, 0, 0, 1, 0, 0)" xlink:href="#c"/>
  </defs>
  <title>--</title>
  <circle cx="503.694" cy="344.594" r="334.1" style="fill: url(#a)"/>
  <g style="opacity: 0.5;filter: url(#b)">
    <path d="M703.212,153.795H380.542V130.652A19.911,19.911,0,0,0,360.688,110.8H220.012a19.912,19.912,0,0,0-19.854,19.853v23.143H169.405a19.912,19.912,0,0,0-19.854,19.853V498.511a19.913,19.913,0,0,0,19.854,19.853H703.212a19.91,19.91,0,0,0,19.852-19.853V173.647A19.91,19.91,0,0,0,703.212,153.795Z" style="fill: #7f78b7"/>
  </g>
  <path d="M703.212,153.795H380.542V130.652A19.911,19.911,0,0,0,360.688,110.8H220.012a19.912,19.912,0,0,0-19.854,19.853v23.143H169.405a19.912,19.912,0,0,0-19.854,19.853V498.511a19.913,19.913,0,0,0,19.854,19.853H703.212a19.91,19.91,0,0,0,19.852-19.853V173.647A19.91,19.91,0,0,0,703.212,153.795Z" style="fill: #faad3f"/>
  <path d="M703.21,518.364H169.4c-10.919,0-17.708-7.7-15.088-17.12L232.29,221.1c2.621-9.416,13.7-17.12,24.618-17.12H790.714c10.919,0,17.708,7.7,15.088,17.12L727.828,501.244C725.207,510.66,714.129,518.364,703.21,518.364Z" style="fill: url(#c)"/>
  <rect x="403.557" y="298.076" width="298.473" height="207.341" style="fill: url(#d)"/>
  <path d="M710.084,302V536.548a12.609,12.609,0,0,1-12.6,12.6H408.614a12.609,12.609,0,0,1-12.6-12.6V302a12.609,12.609,0,0,1,12.6-12.6H697.487A12.609,12.609,0,0,1,710.084,302ZM660.552,521.687a7.808,7.808,0,1,0-7.808,7.808A7.807,7.807,0,0,0,660.552,521.687Zm23.6,0a7.808,7.808,0,1,0-7.808,7.808A7.807,7.807,0,0,0,684.152,521.687Zm12.365-218.717H409.584v184.62H696.517Z" style="fill: #fff"/>
  <g style="opacity: 0.46;filter: url(#b)">
    <path d="M906.43,353.713h-302c-4.537,0-8.215,3.411-8.215,7.618V566.306c0,4.207,3.678,7.618,8.215,7.618h302c4.537,0,8.215-3.411,8.215-7.618V361.331C914.645,357.124,910.967,353.713,906.43,353.713Z" style="fill: #7f78b7"/>
    <ellipse cx="667.539" cy="425.705" rx="23.746" ry="22.021" style="fill: #7f78b7"/>
    <polygon points="901.673 562.294 609.364 562.294 608.823 473.831 662.561 508.615 753.445 438.379 793.838 465.805 831.346 433.697 902.034 487.21 901.673 562.294" style="fill: #7f78b7"/>
  </g>
  <g>
    <path d="M906.436,353.981H604.658c-4.533,0-8.209,3.408-8.209,7.612V566.416c0,4.2,3.675,7.612,8.209,7.612H906.436c4.533,0,8.209-3.408,8.209-7.612V361.593C914.645,357.389,910.97,353.981,906.436,353.981Z" style="fill: url(#f)"/>
    <ellipse cx="667.722" cy="425.92" rx="23.728" ry="22.005" style="fill: #f48120"/>
    <polygon points="901.683 562.407 609.591 562.407 609.05 474.01 662.748 508.768 753.565 438.584 793.928 465.989 831.408 433.905 902.044 487.378 901.683 562.407" style="fill: url(#g)"/>
  </g>
  <rect x="240.961" y="362.909" width="298.473" height="207.341" style="fill: #fff"/>
  <path d="M436.7,460.567,364.355,418.8c-2.144-1.243-4.347-1.4-6.032-.43s-2.645,2.953-2.645,5.44v83.532c0,2.487.965,4.469,2.645,5.44a4.823,4.823,0,0,0,2.435.63,7.264,7.264,0,0,0,3.6-1.059L436.7,470.587c2.152-1.243,3.386-3.071,3.386-5.01S438.852,461.809,436.7,460.567Zm99.721,112.6H243.974A12.887,12.887,0,0,1,231.1,560.293V367.488a12.887,12.887,0,0,1,12.875-12.875H536.421A12.887,12.887,0,0,1,549.3,367.488V560.293A12.887,12.887,0,0,1,536.421,573.165ZM246.547,557.718h287.3V370.061h-287.3Z" style="fill: url(#h)"/>
</svg>
